<svg width="36" height="36" viewBox="0 0 36 36" fill="none" xmlns="http://www.w3.org/2000/svg">
<circle cx="18" cy="18" r="17.55" stroke="white" stroke-width="0.900002"/>
<path d="M18.0004 8.3252C20.8583 8.32538 23.1752 10.643 23.1752 13.501C23.175 16.3588 20.8582 18.6756 18.0004 18.6758C15.1425 18.6758 12.8249 16.3589 12.8246 13.501C12.8246 10.6429 15.1424 8.3252 18.0004 8.3252Z" stroke="white" stroke-width="0.450001"/>
<path d="M18.0001 19.124C20.943 19.124 24.2717 20.0142 26.8019 21.7842C29.309 23.5381 31.0209 26.1462 30.8282 29.6172C28.1662 33.1162 22.7796 35.3242 18.0001 35.3242C13.128 35.3242 7.83242 33.1169 5.17102 29.6172C4.97833 26.1461 6.69117 23.5381 9.19836 21.7842C11.7286 20.0142 15.0572 19.124 18.0001 19.124Z" stroke="white" stroke-width="0.450001"/>
</svg>
