<svg width="30" height="32" viewBox="0 0 30 32" fill="none" xmlns="http://www.w3.org/2000/svg">
<path d="M15 2.10938C23.1548 2.10938 29.7656 8.72017 29.7656 16.875C29.7656 25.0298 23.1548 31.6406 15 31.6406C6.84517 31.6406 0.234375 25.0298 0.234375 16.875C0.234375 8.72017 6.84517 2.10938 15 2.10938Z" stroke="white" stroke-width="0.46875"/>
<circle cx="21.5625" cy="5.625" r="0.9375" fill="#D9D9D9"/>
<circle cx="15" cy="4.6875" r="0.9375" fill="white"/>
<circle cx="8.4375" cy="5.625" r="0.9375" fill="#D9D9D9"/>
<circle cx="4.6875" cy="9.375" r="0.9375" fill="#D9D9D9"/>
<circle cx="2.8125" cy="15.9375" r="0.9375" fill="#D9D9D9"/>
<circle cx="8.4375" cy="27.1875" r="0.9375" fill="#D9D9D9"/>
<circle cx="21.5625" cy="26.25" r="0.9375" fill="#D9D9D9"/>
<circle cx="25.3125" cy="9.375" r="0.9375" fill="#D9D9D9"/>
<circle cx="27.1875" cy="15.9375" r="0.9375" fill="#D9D9D9"/>
<circle cx="26.25" cy="22.5" r="0.9375" fill="#D9D9D9"/>
<circle cx="15" cy="29.0625" r="0.9375" fill="white"/>
<circle cx="3.75" cy="22.5" r="0.9375" fill="#D9D9D9"/>
<rect width="1.875" height="0.9375" transform="translate(14.0625 0.9375)" fill="white"/>
<path d="M16.875 16.4062C9.375 14.531 15 15.9375 7.5 14.0625" stroke="white" stroke-width="0.28125"/>
<path d="M15.9375 14.9993L10.4118 20.7237" stroke="white" stroke-width="0.28125"/>
<path d="M14.0625 15.0004L18.7884 19.6494" stroke="white" stroke-width="0.28125"/>
<circle cx="15" cy="15.9375" r="0.9375" fill="black"/>
<rect x="13.125" width="3.75" height="0.9375" rx="0.46875" fill="white"/>
<rect width="1.875" height="0.9375" transform="translate(23.8468 3.88965) rotate(37)" fill="white"/>
<rect x="23.6622" y="2.57715" width="3.75" height="0.9375" rx="0.46875" transform="rotate(37 23.6622 2.57715)" fill="white"/>
</svg>
