<svg width="40" height="40" viewBox="0 0 40 40" fill="none" xmlns="http://www.w3.org/2000/svg">
<path fill-rule="evenodd" clip-rule="evenodd" d="M39.4396 23.12L34.7284 23.85C34.3783 25.19 33.8482 26.47 33.148 27.67L36.0187 31.43C36.2188 31.69 36.1988 32.07 35.9587 32.3L32.4079 35.88C32.1778 36.11 31.8077 36.14 31.5376 35.95L27.7067 33.12C26.5064 33.83 25.2161 34.36 23.8658 34.71L23.2456 39.4C23.2056 39.73 22.9256 39.98 22.5855 39.98L17.5443 40C17.2142 40 16.9341 39.76 16.8841 39.43L16.1639 34.73C14.8336 34.39 13.5533 33.86 12.353 33.16L8.57208 36.01C8.30201 36.21 7.93192 36.19 7.70187 35.95L4.121 32.4C3.89094 32.17 3.86094 31.8 4.05098 31.53L6.85166 27.69C6.13149 26.47 5.59136 25.16 5.24127 23.8L0.600146 23.24C0.270065 23.2 0.0200049 22.92 0.0200049 22.58L0 17.55C0 17.22 0.240058 16.94 0.570138 16.89L5.27128 16.18C5.63137 14.81 6.1815 13.51 6.90167 12.3L3.99097 8.58C3.78092 8.32 3.81092 7.94 4.04098 7.7L7.60184 4.12C7.8419 3.88 8.21199 3.86 8.48206 4.06L12.283 6.95C13.4933 6.24 14.7936 5.7 16.1539 5.34L16.7641 0.59C16.8041 0.26 17.0841 0.00999985 17.4242 0.00999985L22.4654 0C22.7955 0 23.0756 0.24 23.1256 0.57L23.8158 5.34C25.1361 5.68 26.4164 6.2 27.6067 6.9L31.4276 3.99C31.6877 3.79 32.0678 3.81 32.2978 4.05L35.8787 7.61C36.1188 7.84 36.1388 8.22 35.9387 8.48L33.068 12.29C33.7882 13.5 34.3383 14.8 34.6984 16.16L39.3996 16.78C39.7296 16.82 39.9797 17.1 39.9797 17.44L39.9997 22.48C40.0097 22.79 39.7696 23.07 39.4396 23.12ZM38.6594 18.01L34.0883 17.41C33.8082 17.37 33.5881 17.17 33.5281 16.9C33.178 15.37 32.5679 13.93 31.7177 12.6C31.5677 12.37 31.5777 12.06 31.7477 11.84L34.5384 8.13L31.7877 5.39L28.0668 8.22C27.8468 8.39 27.5467 8.4 27.3166 8.26C25.9963 7.45 24.576 6.86 23.0856 6.53C22.8155 6.47 22.6155 6.25 22.5755 5.98L21.9053 1.34L18.0044 1.35L17.4042 5.97C17.3642 6.25 17.1642 6.47 16.8941 6.53C15.3637 6.88 13.9234 7.48 12.5831 8.32C12.353 8.47 12.0429 8.46 11.8229 8.29L8.12197 5.48L5.40131 8.22L8.232 11.84C8.40204 12.06 8.42204 12.37 8.27201 12.61C7.4218 13.94 6.81165 15.39 6.46157 16.92C6.40155 17.19 6.1815 17.39 5.91143 17.43L1.34033 18.12L1.35033 21.99L5.87142 22.55C6.15149 22.58 6.38155 22.79 6.44156 23.07C6.78164 24.59 7.38179 26.04 8.232 27.38C8.38203 27.61 8.37203 27.91 8.20199 28.13L5.47133 31.86L8.232 34.6L11.9129 31.82C12.0329 31.73 12.173 31.69 12.313 31.69C12.433 31.69 12.553 31.72 12.6631 31.79C13.9834 32.61 15.4037 33.2 16.9041 33.53C17.1742 33.59 17.3742 33.81 17.4142 34.08L18.1144 38.66L21.9953 38.65L22.6055 34.09C22.6455 33.81 22.8455 33.59 23.1156 33.53C24.626 33.18 26.0663 32.59 27.3866 31.76C27.6167 31.61 27.9168 31.63 28.1368 31.79L31.8777 34.54L34.6184 31.78L31.8277 28.12C31.6577 27.9 31.6477 27.6 31.7877 27.36C32.6179 26.04 33.208 24.61 33.5481 23.11C33.6081 22.84 33.8282 22.64 34.0983 22.6L38.6794 21.89L38.6594 18.01ZM19.9248 27.98C15.5138 27.98 11.9229 24.39 11.9229 19.98C11.9229 15.57 15.5138 11.98 19.9248 11.98C24.3359 11.98 27.9268 15.57 27.9268 19.98C27.9268 24.39 24.3359 27.98 19.9248 27.98ZM19.9248 13.31C16.2439 13.31 13.2532 16.3 13.2532 19.98C13.2532 23.66 16.2439 26.65 19.9248 26.65C23.6057 26.65 26.5964 23.66 26.5964 19.98C26.5964 16.3 23.5957 13.31 19.9248 13.31Z" fill="white"/>
</svg>
