<svg width="40" height="40" viewBox="0 0 40 40" fill="none" xmlns="http://www.w3.org/2000/svg">
<circle cx="20" cy="20" r="19.5" stroke="white"/>
<path d="M20 9.25C23.1756 9.25 25.75 11.8244 25.75 15C25.75 18.1756 23.1756 20.75 20 20.75C16.8244 20.75 14.25 18.1756 14.25 15C14.25 11.8244 16.8244 9.25003 20 9.25Z" stroke="white" stroke-width="0.5"/>
<path d="M20.0001 21.25C23.27 21.25 26.9681 22.2385 29.7794 24.2051C32.5652 26.1539 34.467 29.0515 34.2531 32.9082C31.2952 36.796 25.3107 39.25 20.0001 39.25C14.5862 39.25 8.70209 36.7964 5.74524 32.9072C5.53168 29.0511 7.43523 26.1537 10.2208 24.2051C13.0322 22.2385 16.7303 21.25 20.0001 21.25Z" stroke="white" stroke-width="0.5"/>
</svg>
