<svg width="26" height="34" viewBox="0 0 26 34" fill="none" xmlns="http://www.w3.org/2000/svg">
<path d="M12.5 10C12.8517 10.9718 13.2034 11.9437 13.6299 12.6063C14.0563 13.2689 14.5469 13.5928 15.0263 13.7504C15.5058 13.9081 15.9593 13.8896 16.3318 13.8476C16.7042 13.8057 16.9819 13.7409 17.268 13.6742" stroke="white" stroke-width="0.5" stroke-linecap="round"/>
<path d="M20.2573 6C20.1369 6.54607 20.0166 7.09215 19.8945 7.60485C19.7723 8.11755 19.652 8.58032 19.5 9.08517" stroke="white" stroke-width="0.5" stroke-linecap="round"/>
<path d="M15.089 4C15.0427 4.21288 14.9964 4.42575 14.9078 4.81771C14.8192 5.20967 14.6896 5.77425 14.6136 6.15303C14.5376 6.5318 14.5191 6.70766 14.5095 6.81213C14.5 6.91661 14.5 6.94437 14.5 6.97298" stroke="white" stroke-width="0.5" stroke-linecap="round"/>
<path d="M13.5 15.0002L10.581 20.8791L5.6759 26.7364" stroke="white"/>
<path d="M13.4988 14.9991L10.4999 21.4998L6.00012 27" stroke="white"/>
<path d="M16.6787 1.25C20.7717 1.25 23.75 4.48569 23.75 8.5C23.75 12.5143 20.7717 15.75 16.6787 15.75C12.5703 15.7498 9.25 12.4984 9.25 8.5C9.25 4.50158 12.5703 1.25019 16.6787 1.25Z" stroke="white" stroke-width="0.5"/>
</svg>
